<svg xmlns="http://www.w3.org/2000/svg" data-name="Layer 1" viewBox="0 0 32 32"><path fill="#f59831" d="M4.264,6.336a.991.991,0,0,0-.764.971V15.5A16.012,16.012,0,0,0,15.987,31.117l0,0H16A16.012,16.012,0,0,0,28.5,15.5V7.343a.991.991,0,0,0-.808-.979,23.6,23.6,0,0,1-6.608-2.281,23.524,23.524,0,0,1-3.91-2.568A1.981,1.981,0,0,0,14.74,1.5a27.966,27.966,0,0,1-3.867,2.419A28.03,28.03,0,0,1,4.264,6.336Z"/><path fill="#fdd331" d="M7.258,8.568a.99.99,0,0,0-.758.968v6.038a12.169,12.169,0,0,0,9.49,11.869l0,0H16a12.169,12.169,0,0,0,9.5-11.871v-6a.994.994,0,0,0-.8-.979,17.927,17.927,0,0,1-4.833-1.7A17.888,17.888,0,0,1,16.6,4.7a.971.971,0,0,0-1.226-.025A21.261,21.261,0,0,1,12.1,6.77,21.3,21.3,0,0,1,7.258,8.568Z"/><path fill="#afaeb3" d="M18.5,14a.5.5,0,0,1-.5-.5V12a2,2,0,0,0-4,0v1.5a.5.5,0,0,1-1,0V12a3,3,0,0,1,6,0v1.5A.5.5,0,0,1,18.5,14Z"/><rect width="140" height="140" x="11.5" y="13.5" fill="#3eb57b" rx="1" ry="1"/><circle cx="16" cy="17" r="1.5" fill="#dad9db"/></svg>
